<svg width="27" height="28" viewBox="0 0 27 28" fill="none" xmlns="http://www.w3.org/2000/svg">
<path d="M26.3791 7.63638C26.2629 7.46704 26.0855 7.36785 25.8984 7.36785H22.1325L19.4194 0.418961C19.2798 0.0606987 18.9146 -0.0983131 18.6069 0.063497C18.2978 0.225307 18.1606 0.64728 18.3006 1.00555L20.7843 7.36779H6.03682L8.5206 1.00555C8.66022 0.647286 8.52301 0.225335 8.21386 0.063497C7.90471 -0.0987428 7.54099 0.0606997 7.40096 0.418961L4.68788 7.3684H0.922003C0.734843 7.3684 0.557892 7.46716 0.441304 7.63693C0.324516 7.80692 0.281252 8.02898 0.323399 8.24005L4.1457 27.4485C4.20994 27.7713 4.45819 28 4.74452 28H22.0764C22.3621 28 22.6108 27.7713 22.675 27.4481L26.4969 8.23961C26.5393 8.02853 26.4955 7.80614 26.3791 7.63638ZM8.40268 23.3855C8.3687 23.3922 8.33435 23.3954 8.30075 23.3954C8.0059 23.3954 7.74576 23.1486 7.69547 22.8007L6.25722 12.8012C6.20152 12.4135 6.42767 12.0466 6.76206 11.9821C7.09591 11.9147 7.41322 12.179 7.46892 12.5671L8.90717 22.566C8.96325 22.9542 8.73726 23.3214 8.40268 23.3855ZM14.0244 22.6836C14.0244 23.0766 13.7492 23.3954 13.4102 23.3954C13.0708 23.3954 12.7959 23.0766 12.7959 22.6836V12.6847C12.7959 12.2914 13.0707 11.9729 13.4102 11.9729C13.7492 11.9729 14.0244 12.2914 14.0244 12.6847V22.6836ZM20.5635 12.8015L19.1248 22.801C19.0749 23.1489 18.8144 23.3957 18.5196 23.3957C18.4859 23.3957 18.452 23.3925 18.4176 23.3858C18.0834 23.3213 17.8571 22.9544 17.9132 22.5662L19.3518 12.5673C19.4075 12.1792 19.722 11.9158 20.059 11.9823C20.3932 12.0468 20.6192 12.4138 20.5635 12.8015Z" fill="#C8C8C8"/>
</svg>
