<svg width="20" height="21" viewBox="0 0 20 21" fill="none" xmlns="http://www.w3.org/2000/svg">
<path d="M19.9787 3.88649L20.0002 0.5L16.7657 0.503312L8.25289 9.12767C7.59775 8.8684 6.88569 8.72461 6.13991 8.72461C2.93009 8.72461 0.328125 11.3606 0.328125 14.6123C0.328125 17.864 2.93009 20.5 6.13991 20.5C9.34973 20.5 11.9517 17.864 11.9517 14.6123C11.9517 13.8432 11.8383 13.1971 11.5736 12.5237L13.0887 11.0304H15.387L15.3696 8.58836L16.4253 7.52611L17.7027 7.51225V5.1502L20.0003 5.1499L19.9787 3.88649ZM5.5403 16.9088C4.58078 16.9088 3.80289 16.1208 3.80289 15.1487C3.80289 14.1766 4.58078 13.3886 5.5403 13.3886C6.49983 13.3886 7.27772 14.1766 7.27772 15.1487C7.27772 16.1208 6.49983 16.9088 5.5403 16.9088Z" fill="#E1D3C9"/>
</svg>
